<?xml version="1.0" encoding="UTF-8"?>
<svg width="752pt" height="752pt" version="1.1" viewBox="0 0 752 752" xmlns="http://www.w3.org/2000/svg">
 <g>
  <path d="m357.06 271.81c0-26.047-21.312-47.359-47.359-47.359h-37.887c-26.047 0-47.359 21.312-47.359 47.359v37.887c0 26.047 21.312 47.359 47.359 47.359h37.887c26.047 0 47.359-21.312 47.359-47.359zm-18.945 37.887c0 15.629-12.785 28.414-28.414 28.414h-37.887c-15.629 0-28.414-12.785-28.414-28.414v-37.887c0-15.629 12.785-28.414 28.414-28.414h37.887c15.629 0 28.414 12.785 28.414 28.414z"/>
  <path d="m527.55 271.81c0-26.047-21.312-47.359-47.359-47.359h-37.887c-26.047 0-47.359 21.312-47.359 47.359v37.887c0 26.047 21.312 47.359 47.359 47.359h37.887c26.047 0 47.359-21.312 47.359-47.359zm-18.941 37.887c0 15.629-12.785 28.414-28.414 28.414h-37.887c-15.629 0-28.414-12.785-28.414-28.414v-37.887c0-15.629 12.785-28.414 28.414-28.414h37.887c15.629 0 28.414 12.785 28.414 28.414z"/>
  <path d="m309.7 394.95h-37.887c-26.047 0-47.359 21.312-47.359 47.359v37.887c0 26.047 21.312 47.359 47.359 47.359h37.887c26.047 0 47.359-21.312 47.359-47.359v-37.887c0-26.051-21.312-47.359-47.359-47.359zm28.414 85.242c0 15.629-12.785 28.414-28.414 28.414h-37.887c-15.629 0-28.414-12.785-28.414-28.414v-37.887c0-15.629 12.785-28.414 28.414-28.414h37.887c15.629 0 28.414 12.785 28.414 28.414z"/>
  <path d="m480.19 394.95h-37.887c-26.047 0-47.359 21.312-47.359 47.359v37.887c0 26.047 21.312 47.359 47.359 47.359h37.887c26.047 0 47.359-21.312 47.359-47.359v-37.887c0-26.051-21.312-47.359-47.359-47.359zm28.418 85.242c0 15.629-12.785 28.414-28.414 28.414h-37.887c-15.629 0-28.414-12.785-28.414-28.414v-37.887c0-15.629 12.785-28.414 28.414-28.414h37.887c15.629 0 28.414 12.785 28.414 28.414z"/>
 </g>
</svg>
